<?xml version="1.0"?>
<svg xmlns:rdf="http://www.w3.org/1999/02/22-rdf-syntax-ns#" xmlns="http://www.w3.org/2000/svg" xmlns:cc="http://creativecommons.org/ns#" xmlns:xlink="http://www.w3.org/1999/xlink" xmlns:dc="http://purl.org/dc/elements/1.1/" xmlns:svg="http://www.w3.org/2000/svg" id="svg2652" viewBox="0 0 750.01 568.11" version="1.0">
  <defs id="defs2654">
    <linearGradient id="linearGradient15806">
      <stop id="stop15808" stop-color="#f7ff00" offset="0"/>
      <stop id="stop15810" stop-color="#f79b00" stop-opacity="0" offset="1"/>
    </linearGradient>
    <linearGradient id="linearGradient14816">
      <stop id="stop14818" stop-color="#fd272a" offset="0"/>
      <stop id="stop14820" stop-color="#0000e5" stop-opacity="0" offset="1"/>
    </linearGradient>
    <linearGradient id="linearGradient19834" y2="134.78" xlink:href="#linearGradient14816" gradientUnits="userSpaceOnUse" x2="429.75" gradientTransform="matrix(1.331 0 0 1.331 -125.04 -16.527)" y1="75.925" x1="551.28"/>
    <linearGradient id="linearGradient3168" y2="100.34" xlink:href="#linearGradient15806" gradientUnits="userSpaceOnUse" x2="605.8" gradientTransform="matrix(1.331 0 0 1.331 -518.39 -58.027)" y1="100.34" x1="463.5"/>
    <linearGradient id="linearGradient3184" y2="72.168" xlink:href="#linearGradient15806-9" gradientUnits="userSpaceOnUse" x2="605.68" gradientTransform="matrix(1.331 0 0 1.331 -197.03 321.87)" y1="100.34" x1="534.65"/>
    <linearGradient id="linearGradient15806-9">
      <stop id="stop15808-2" stop-color="#d61518" offset="0"/>
      <stop id="stop15810-5" stop-color="#f79b00" stop-opacity="0" offset="1"/>
    </linearGradient>
    <radialGradient id="radialGradient2866" xlink:href="#linearGradient15806-9" gradientUnits="userSpaceOnUse" cy="261.27" cx="337" gradientTransform="matrix(-.79563 .00037034 -.28428 3.6473 644.16 -652.27)" r="149.62"/>
    <linearGradient id="linearGradient2907" y2="100.34" gradientUnits="userSpaceOnUse" y1="100.34" gradientTransform="matrix(1.331 0 0 1.331 -685.91 68.421)" x2="589.75" x1="534.65">
      <stop id="stop15808-5" stop-color="#f7ff00" offset="0"/>
      <stop id="stop15810-1" stop-color="#f79b00" stop-opacity="0" offset="1"/>
    </linearGradient>
    <linearGradient id="linearGradient3744" y2="445.79" xlink:href="#linearGradient14816" gradientUnits="userSpaceOnUse" x2="108.43" gradientTransform="translate(-4,4)" y1="428.29" x1="108.43"/>
    <radialGradient id="radialGradient3760" gradientUnits="userSpaceOnUse" cy="300.78" cx="301.73" gradientTransform="matrix(1.182 .38642 -.45097 1.3795 80.762 -230.72)" r="182.84">
      <stop id="stop3756" stop-color="#3680db" offset="0"/>
      <stop id="stop3758" stop-color="#3680db" stop-opacity="0" offset="1"/>
    </radialGradient>
    <radialGradient id="radialGradient3785" gradientUnits="userSpaceOnUse" cy="261.27" cx="337" gradientTransform="matrix(-.79563 .00037034 -.28428 3.6473 657.97 -680.82)" r="149.62">
      <stop id="stop15808-2-9" stop-color="#d61518" offset="0"/>
      <stop id="stop15810-5-3" stop-color="#f79b00" stop-opacity="0" offset="1"/>
    </radialGradient>
    <linearGradient id="linearGradient3836" y2="417.92" gradientUnits="userSpaceOnUse" x2="609.13" y1="455.42" x1="514.59">
      <stop id="stop3832" stop-color="#46d387" offset="0"/>
      <stop id="stop3834" stop-color="#46d387" stop-opacity="0" offset="1"/>
    </linearGradient>
    <linearGradient id="linearGradient3844" y2="519.85" gradientUnits="userSpaceOnUse" x2="362.02" y1="428.18" x1="551.65">
      <stop id="stop3840" stop-color="#f73400" offset="0"/>
      <stop id="stop3842" stop-color="#f73400" stop-opacity="0" offset="1"/>
    </linearGradient>
    <linearGradient id="linearGradient3852" y2="473.18" gradientUnits="userSpaceOnUse" x2="574.89" y1="422.35" x1="514.52">
      <stop id="stop3848" stop-color="#5544b6" offset="0"/>
      <stop id="stop3850" stop-color="#5544b6" stop-opacity="0" offset="1"/>
    </linearGradient>
    <linearGradient id="linearGradient3860" y2="418.29" gradientUnits="userSpaceOnUse" x2="142.96" gradientTransform="translate(-4,4)" y1="445.79" x1="13.894">
      <stop id="stop3856" stop-color="#f03" offset="0"/>
      <stop id="stop3858" stop-color="#f03" stop-opacity="0" offset="1"/>
    </linearGradient>
    <linearGradient id="linearGradient3868" y2="401.05" gradientUnits="userSpaceOnUse" x2="13.823" gradientTransform="translate(-4,4)" y1="445.22" x1="126.32">
      <stop id="stop3864" stop-color="#f30" offset="0"/>
      <stop id="stop3866" stop-color="#f30" stop-opacity="0" offset="1"/>
    </linearGradient>
    <linearGradient id="linearGradient3876" y2="63.528" gradientUnits="userSpaceOnUse" x2="307.77" gradientTransform="translate(-20,12)" y1="63.528" x1="118.7">
      <stop id="stop3872" stop-color="#600" offset="0"/>
      <stop id="stop3874" stop-color="#600" stop-opacity="0" offset="1"/>
    </linearGradient>
    <linearGradient id="linearGradient3884" y2="93.789" gradientUnits="userSpaceOnUse" x2="118.63" gradientTransform="translate(-20,12)" y1="36.289" x1="249.46">
      <stop id="stop3880" stop-color="#03f" offset="0"/>
      <stop id="stop3882" stop-color="#03f" stop-opacity="0" offset="1"/>
    </linearGradient>
    <linearGradient id="linearGradient3892" y2="223.74" gradientUnits="userSpaceOnUse" x2="-136.65" gradientTransform="translate(26,6)" y1="166.24" x1="37.61">
      <stop id="stop3888" stop-color="#d4ee00" offset="0"/>
      <stop id="stop3890" stop-color="#d4ee00" stop-opacity="0" offset="1"/>
    </linearGradient>
    <linearGradient id="linearGradient3900" y2="195.98" gradientUnits="userSpaceOnUse" x2="73.05" gradientTransform="translate(26,6)" y1="195.98" x1="-.28374">
      <stop id="stop3896" stop-color="#c886e7" offset="0"/>
      <stop id="stop3898" stop-color="#c886e7" stop-opacity="0" offset="1"/>
    </linearGradient>
    <linearGradient id="linearGradient3908" y2="110.46" xlink:href="#linearGradient14816" gradientUnits="userSpaceOnUse" x2="677.05" gradientTransform="matrix(.25084 -.96803 .96803 .25084 333.47 652.64)" y1="110.46" x1="562.98"/>
    <linearGradient id="linearGradient3916" y2="156.86" xlink:href="#linearGradient15806" gradientUnits="userSpaceOnUse" x2="442.96" gradientTransform="translate(4,6)" y1="78.529" x1="604.72"/>
  </defs>
  <g id="layer1" transform="translate(68.89 18.909)">
    <g id="g3971">
      <path id="path11427-4-6" d="m274.82 159.49 7.3024 52.402 2.2879-1.7237 0.0627 0.50145 19.776-15.2 17.3 55.285-129.47-1.0656 14.775-25.937-73.24 14.81 27.876 52.998 19.181-26.264 143.79-0.87754-2.664 45.068-106.37 24.634-21.938-15.984-0.25072 1.9745-1.473-1.0656-6.6442 49.174 58.889-11.533-1.9431-1.4103 1.8804-0.37609-14.667-10.687 100.89-20.998 38.674 40.837-18.648 11.189 77.997 9.8367-19.453-45.126-22.503 13.633-1.7864 1.0969-45.131-46.134 1.2118-46.395 114.28-28.008 19.933 17.081 22.623-60.509-74.147 16.35 19.807 16.987-105 25.093-20.518-63.862 19.745-15.169-59.829-10.624 0.0627 0.47011-2.664-0.47011z" fill-rule="evenodd" stroke="url(#radialGradient3785)" stroke-width="2.9967" fill="#f30"/>
      <path id="path2785" style="color:#000000" d="m586.59 23.749c-51.912 0-94.035 41.785-94.035 93.279 0 51.495 42.123 93.279 94.035 93.279s94.035-41.785 94.035-93.279c0-51.495-42.123-93.279-94.035-93.279zm-1.933 18.661c0.64496-0.01623 1.2841 0 1.933 0 41.529 0 75.223 33.422 75.223 74.618-0.00001 41.196-33.693 74.618-75.223 74.618-41.529 0-75.223-33.422-75.223-74.618 0-40.552 32.656-73.596 73.29-74.618z" stroke="url(#linearGradient19834)" stroke-width="1.0002" fill="url(#linearGradient3916)"/>
      <g id="g3817">
        <path id="path11427-4" d="m261.12 188.38 7.2812 52.25 2.2812-1.7188 0.0625 0.5 19.719-15.156 17.25 55.125l-129.09-1.07 14.74-25.86-73.03 14.77 27.79 52.84 19.13-26.18 143.37-0.88-2.6562 44.938-106.06 24.562-21.875-15.938-0.25 1.9688-1.4688-1.0625-6.625 49.031 58.719-11.5-1.9375-1.4062 1.875-0.375-14.036-8.8885 101.18-20.938 37.384 38.951-18.594 11.156 77.771 9.8082-19.396-44.996-22.438 13.594-1.7812 1.0938-45-46 1.2083-46.26 113.95-27.927 19.875 17.031 22.557-60.334-73.932 16.303 19.75 16.938-104.7 25.021-20.458-63.677 19.688-15.125-59.656-10.594 0.0625 0.46875-2.6562-0.46875z" fill-rule="evenodd" transform="translate(13.823 -30.909)" stroke="url(#radialGradient2866)" stroke-width="2.988" fill="url(#radialGradient3760)"/>
      </g>
      <path id="path18771" style="color:#000000" d="m496.3 93.079c-13.022 50.252 16.861 101.51 66.709 114.43 49.848 12.917 100.86-17.378 113.89-67.63 13.02-50.256-16.86-101.51-66.71-114.43-49.85-12.918-100.87 17.377-113.89 67.629zm-0.22125 0.17586c0.0765-0.35999 0.13158 0.109 0.22561-0.31796 6.8861-31.267 72.388-77.846 112.27-67.512 39.879 10.334 66.19 92.063 55.772 132.26-10.417 40.202-112.9 46.66-146.33 6.165-11.798-14.291-26.857-26.393-21.933-70.599z" stroke="#29c418" stroke-width="1.0002" fill="url(#linearGradient3908)"/>
      <path id="path3162" d="m193.24-17.751c-51.912 0-94.035 41.785-94.035 93.279 0 51.495 42.123 93.279 94.035 93.279s94.035-41.785 94.035-93.279c0-51.495-42.123-93.279-94.035-93.279zm-1.933 18.661c0.64496-0.01622 1.2841 0 1.933 0 41.529 0 75.223 33.422 75.223 74.618-0.00001 41.196-33.693 74.618-75.223 74.618-41.529 0-75.223-33.422-75.223-74.618 0-40.552 32.656-73.596 73.29-74.618z" style="color:#000000" stroke="url(#linearGradient3168)" fill="url(#linearGradient3876)"/>
      <path id="path3166" style="color:#000000" d="m193.16-18.238c-51.912 0-94.035 41.785-94.035 93.279 0 51.495 42.123 93.279 94.035 93.279s94.035-41.785 94.035-93.279c0-51.495-42.123-93.279-94.035-93.279zm-0.22574-0.17006c0.36768-0.01624-0.0725 0.15471 0.36439 0.13864 31.995-1.1771 93.515 50.547 93.515 91.742-0.00001 41.196-72.516 87.167-114.05 87.167-41.529 0-73.489-97.587-42.674-140.11 10.874-15.005 18.812-32.619 62.84-38.941z" stroke="#f7f100" stroke-width="1.0002" fill="url(#linearGradient3884)"/>
      <path id="path3170" style="color:#000000" d="m104.43 356.51c-51.912 0-94.035 41.785-94.035 93.279 0 51.495 42.123 93.279 94.035 93.279s94.035-41.785 94.035-93.279c0-51.495-42.123-93.279-94.035-93.279zm-1.933 18.661c0.64496-0.0162 1.2841 0 1.933 0 41.529 0 75.223 33.422 75.223 74.618-0.00001 41.196-33.693 74.618-75.223 74.618-41.529 0-75.223-33.422-75.223-74.618 0-40.552 32.656-73.596 73.29-74.618z" stroke="url(#linearGradient3744)" stroke-width="1.0002" fill="url(#linearGradient3860)"/>
      <path id="path3174" style="color:#000000" d="m104.36 356.02c-51.912 0-94.035 41.785-94.035 93.279 0 51.495 42.123 93.279 94.035 93.279s94.035-41.785 94.035-93.279c0-51.495-42.123-93.279-94.035-93.279zm-0.22574-0.17006c0.36768-0.0162-0.0725 0.15471 0.36439 0.13864 31.995-1.1771 93.515 50.547 93.515 91.742-0.00001 41.196-72.516 87.167-114.05 87.167-41.529 0-73.489-97.587-42.674-140.11 10.874-15.005 18.812-32.619 62.84-38.941z" stroke="#f4e200" stroke-width=".99921" fill="url(#linearGradient3868)"/>
      <path id="path3178" style="color:#000000" d="m514.59 362.14c-51.912 0-94.035 41.785-94.035 93.279 0 51.495 42.123 93.279 94.035 93.279s94.035-41.785 94.035-93.279c0-51.495-42.123-93.279-94.035-93.279zm-1.933 18.661c0.64496-0.0162 1.2841 0 1.933 0 41.529 0 75.223 33.422 75.223 74.618-0.00001 41.196-33.693 74.618-75.223 74.618-41.529 0-75.223-33.422-75.223-74.618 0-40.552 32.656-73.596 73.29-74.618z" stroke="url(#linearGradient3184)" stroke-width="1.0002" fill="url(#linearGradient3836)"/>
      <path id="path3182" style="color:#000000" d="m514.52 361.66c-51.912 0-94.035 41.785-94.035 93.279 0 51.495 42.123 93.279 94.035 93.279s94.035-41.785 94.035-93.279c0-51.495-42.123-93.279-94.035-93.279zm-0.22574-0.17006c0.36768-0.0162-0.0725 0.15471 0.36439 0.13864 31.995-1.1771 93.515 50.547 93.515 91.742-0.00001 41.196-72.516 87.167-114.05 87.167-41.529 0-73.489-97.587-42.674-140.11 10.874-15.005 18.812-32.619 62.84-38.941z" stroke="url(#linearGradient3844)" stroke-width="1.0002" fill="url(#linearGradient3852)"/>
      <path id="path3170-7" style="color:#000000" d="m25.716 108.7c-51.912 0-94.035 41.785-94.035 93.279 0 51.495 42.123 93.279 94.035 93.279s94.035-41.785 94.035-93.279c0-51.495-42.123-93.279-94.035-93.279zm-1.933 18.661c0.64496-0.0162 1.2841 0 1.933 0 41.529 0 75.223 33.422 75.223 74.618-0.00001 41.196-33.693 74.618-75.223 74.618-41.529 0-75.223-33.422-75.223-74.618 0-40.552 32.656-73.596 73.29-74.618z" stroke="url(#linearGradient2907)" stroke-width="1.0002" fill="url(#linearGradient3900)"/>
      <path id="path3174-4" style="color:#000000" d="m25.645 108.21c-51.912 0-94.035 41.785-94.035 93.279 0 51.495 42.123 93.279 94.035 93.279s94.035-41.785 94.035-93.279c0-51.495-42.123-93.279-94.035-93.279zm-0.22574-0.17006c0.36768-0.0162-0.0725 0.15471 0.36439 0.13864 31.995-1.1771 93.515 50.547 93.515 91.742-0.00001 41.196-72.516 87.167-114.05 87.167-41.529 0-73.489-97.587-42.674-140.11 10.874-15.005 18.812-32.619 62.84-38.941z" stroke="#40a700" stroke-width="1.0002" fill="url(#linearGradient3892)"/>
      <path id="path17" d="m157.48 61.488c-0.84301-2.1075-1.3808-3.5465-0.52325-9.5348 0.85754-5.9883-3.9389-12.863-0.68313-17.282 2.9796-4.0552 0.79941-10.16 5.4796-11.293 11.817-2.9215 13.357-4.1133 21.773-1.7006 8.401 2.3837 1.875 2.2093 8.9679 4.6511 2.8633 6.1046-1.7732 2.8633 3.1976 9.7092 4.9709 6.8458 3.4302 4.9709 2.0639 12.485-1.3663 7.5144-4.1133 11.134 0.3343 10.785 4.4622-0.3343 7.3691 2.5581 10.974 2.0494 3.6046-0.50872 4.2005 1.1628 6.3516 2.0785 4.4476 1.875-0.17441 5.2761 1.7151 9.5638 1.875 4.2877 0.3343 7.6888 4.4622 6.1627 4.1133-1.5262 6.3371-1.3663 5.8284 4.4622-0.50872 5.8284 3.4302 1.5116 0.94475 15.465-0.26163 3.8372-1.279 2.3255-0.77034 5.2179 0.46511 2.6453-1.8895 2.1802-2.3982 3.9389-1.3663 4.7964-1.5407 2.5872-3.0814 5.1453-2.718 4.5494-3.2558 0.17442-5.8284 2.2093-2.5726 2.0785-3.4302 0.3343-5.1453 1.7296-1.7151 1.3663-6.5115-5.3052-13.546-3.779-3.6191 0.79941-1.8895-3.0959 0-6.1627 1.8895-3.0959 0.68313-3.9389 2.5726-7.1801 1.875-3.2703-1.032-2.2383-2.9215-5.8139-1.8895-3.6046-4.1133-3.779-8.2266-7.3546-4.1133-3.6046-2.9215 0-7.3691-3.0959-6.9476-4.7964-6.308-2.1075-8.401-4.4622-2.9215-3.2412-9.2295-9.5929-10.799-10.247-5.3052-2.2383 1.032-4.1133-4.9709-7.747z" fill-rule="evenodd" stroke="#edc418" clip-rule="evenodd" stroke-width="2.4803" fill="#03f"/>
      <path id="path83" d="m81.951 421.55c-7.7778 4.0914 0.36458 8.7905-7.5145 8.0613-3.342-0.30382 2.6128 5.0029 5.0231 5.489 2.39 0.48611 1.195 3.1192 0.46586 2.8762-6.2587-2.0862-5.0231-5.0231-6.441-4.294-1.4381 0.70891 0.46586 6.684-1.9039 10.249-2.39 3.5648 0 7.636-5.9751 4.294-2.4103-1.3368 4.9421 15.171 5.489 15.009 2.6128-0.70891 0.95197 3.3623 0.46586 3.3623-1.9242 0 1.6406 6.522 2.8762 7.3929 3.3015 2.2888 0.42535 2.7749-0.24306 1.4178 5.1042 10.168 9.945 10.411 10.026 12.376 0.14178 3.3218 8.4462 8.0006 6.9271 9.2969-3.342 2.8964 3.6053 2.6534 1.7824 4.3142 8.9323-14.117 6.5017 3.9497 9.0133-2.8559 3.3623-9.0538-4.294-13.368-3.7674-19.748 0.78993 1.7419 1.1343 3.5243 4.0104 0.62789 2.8559-2.8559 2.6128 0.74942 4.294 0 3.6458-1.5394-0.46586-7.879 2.6331-9.0538s3.8079 8.3449 5.9751 6.9271c2.147-1.4178 6.2182 0.46586 7.3929-1.195 1.195-1.6609 5.489 2.3698 7.636 3.8281 2.147 1.4178 2.147-1.4583 3.342-7.636 1.195-6.2182 6.2182-3.8281 4.294-8.3449-1.9039-4.5573 0.95197-2.1672-0.70891-7.879-1.6811-5.7321 4.0509-4.5573-0.48611-7.879-1.8837-1.3976 0.60764-1.195-3.5851-7.3929-5.9751-8.831 5.7321 2.8762 1.6811-6.684-2.6534-6.2384 5.9751-1.195 4.0712-11.221-0.91146-4.7801 2.8559-7.3929-2.39-7.1499-5.246 0.24306-6.0966-0.76968-9.5602 0-2.147 0.46586-5.4688-2.39 0.76968-12.457-2.1267-0.95197-4.3548-0.8912-7.4537-0.8912-14.381 0-6.6638-6.1979-26.615 0.76967 3.0584 0.46586 4.3547 0.66841 4.3547 0.66841l-0.34433 7.4132-1.8634 1.6811h2.1875l-0.6684 8.4057-15.191 0.2228z" fill-rule="evenodd" stroke="#ed2f18" clip-rule="evenodd" stroke-width="1.4173" fill="#b0d6ba"/>
      <path id="path359" d="m600.92 177.5c-4.2801-10.583-6.4593 0.067-8.7502-10.974-2.1121-10.136-3.699-2.235-4.8948-10.259-1.084-7.3645-1.4081-4.8389-4.8724-3.6878 1.0505-3.1626-3.1626-6.5822-1.0616-12.371s-1.7433-3.3079 1.7098-8.5491c3.8219-5.7888-1.7098-7.3645-0.1341-13.03 1.5869-5.6547-3.5537-8.415 0-8.415s2.7715-1.3187 2.6597-0.92755c0.63699 3.5649 5.9005-1.5757 3.6655 3.8219-1.5087 3.632 0.23468 5.2747 1.5869 4.8724 1.3187-0.39113 1.1734 1.5757 3.8219 1.0505 2.6262-0.52523 1.5869 4.4701 4.079 6.5822s1.4528-0.65934 2.3692-0.1341c0.92754 0.52524-0.39114 0.91637 1.0616 2.5033 1.4528 1.5757 0.97225 3.6878 3.0173 5.4088 3.632-8.1468-8.1468-12.65-5.3753-16.729 2.7603-4.079 2.7491-5.4088 5.0065-8.0238 1.5757-1.8439 2.9614 0.70405 4.4701-0.39113 1.4528-1.0505 1.7098 0.91637 3.0285 0 1.3187-0.92755 1.3187 1.6651 6.1911-1.4975 1.5869-2.101-0.1341-2.7268 1.7098-4.9506 1.8439-2.235-1.5869-2.7715-1.0505-5.0065 0.52523-2.235-2.6374-1.7098-2.6374-4.2019-3.6878 1.4416-8.035-5.1294-6.8504-8.8173 1.1846-3.6878-1.788-2.0116-6.7275-8.292-5.2747-6.7163-8.5714 2.8944-12.516-2.8944-3.185-4.6713-7.1186 4.079-8.035 1.8439-2.1792-5.2971 2.9279-14.695 2.5033-15.925-1.0505-3.0285-5.9229 2.6262-6.9846-1.7098-0.9052-3.7661-0.69286 0.32409-2.0004-2.9614-5.5094 0.067-5.5206-0.0335-5.9006 1.6428-0.78226 3.4196-3.6878-0.83815-5.8111 2.235-2.8944 4.2131 0.92755 6.057-0.52523 8.6832-1.4416 2.6262-2.3692 0.78227-3.2967 2.3692-0.91637 1.5757 2.4139 2.6485 1.5869 3.8108-1.5869 2.235 3.0285 3.1626 5.5429 7.4986 2.5032 4.3472 8.035 5.7888 8.292 7.4986 0.25702 1.7098-3.1626-0.25704-3.4308 2.7715-0.26821 3.0285 1.4528 1.8439 0.13411 4.7383s1.3298 3.956-0.52525 5.3976c-2.3692 1.8439 0.13411 4.8724 4.4701 8.6832 4.3584 3.8108-1.0505 3.8108 4.0902 16.584 4.0454 10.069-3.956 10.136-3.0285 15.657 0.71522 4.3248-0.39113 2.7603-0.25703 5.3865-0.79345 3.0285-4.6154 3.6878-1.3187 7.3757-3.0285 1.0505-0.91637 2.101-1.5869 4.336-0.65934 2.2351 0.79344 3.8219 1.7098 3.6878 0.92756-0.1341-0.78227-2.5032 1.5869-1.4528 2.3803 1.0616-0.39113 1.978 2.1121 2.6374 2.5033 0.65935-1.3187 2.2351 1.1734 3.8108 0.44701 0.27939 0.52524-1.8439 0.52524-1.8439 1.7098 1.3187-1.1846 3.4196 3.2967 5.0065-2.7603 4.4701 0.25703 1.5757 3.699 7.2974 4.2243-1.8439 5.5206 3.0956 8.035 3.0956 3.8443 0 1.274-2.5815 4.4366-3.2408z" fill-rule="evenodd" stroke="#edd818" clip-rule="evenodd" stroke-width=".7689" fill="#bfbd46"/>
      <path id="path457" d="m43.381 169.01c-1.3411 0 0.68543-0.89404 3.308-1.7881 2.5927-0.86424 0.98344-0.74503-1.4901-2.3543s-1.8775-0.11921-3.8444 0.1192c-1.2517 0.35762 1.3411 1.8477-1.8775 4.5894 1.8775-1.7583 0.23841-3.2185-0.62583-4.4702s-1.9669 2.3543-3.3974 1.3112c-1.4305-1.043-2.5629 1.1921-4.4106 0.29802-1.8775-0.86424-0.38742 1.6093-2.5927 2.8609-2.2351 1.2517 0.86423 2.3543-1.6093 2.8609-2.4735 0.50662-0.1192 1.4901-2.8609 1.7285-2.7119 0.23841-1.2517 0.23841 0.1192 1.7285s2.8311 1.3411 5.8411 0.62583c3.0099-0.71523-0.77483 0-0.95364 1.5795-0.14901 1.5497-1.6391 1.1622-4.5 2.2649-2.1755 0.83444 1.9967 3.8444 0.0894 3.2186-1.9073-0.62583-0.32781-1.2517-4.1722-1.9669-1.043-0.20861-3.2185 2.4735-4.202 0.149-0.0298-0.0894-5.5132-1.9967-6.4669-1.4901-1.4901 0.74503-1.7583 0.0298-3.3676 0.53642-1.6093 0.50663-1.2815 2.0861-0.0298 1.5795 1.2517-0.50662 0.65563 2.3543 1.4007 3.9636-2.2351-1.4901-3.606-0.86424-4.9768-0.62583-1.3709 0.23841 1.7285 0.50662 2.2351 1.4901 0.50662 1.0132 1.8775 0.74503 4.2318 0.86424 2.3543 0.1192 2.4735 1.7583-0.86424 1.7583-3.3675 0-2.4735 1.7285-1.3709 2.8311 1.1324 1.1324-0.98344 0.1192-3.606 0.38742-2.5927 0.23841 1.2517 1.4901-0.74503 2.0861-1.9669 0.62583 0.62583 1.4901 2.3543 0.74503 1.7583-0.74503 1.8775 0.74503 0.74503 1.2517-1.1026 0.50662 1.0132 1.3709 2.2351 0.62583 1.2516-0.74504 2.1755 0.26821 1.4305 1.6391-0.74503 1.3709 4.0232 0.20861 6.8841 0.20861 2.8311 0 3.1291 2.0861-0.32782 1.9371-3.457-0.1192-2.7715 0.53643-4.5894 1.9669s0.68543 0.89404-0.0596 1.2517c-0.74504 0.38741-1.3411 3.6358-2.7119 3.1291-1.3709-0.50662 0.38741 0.23842-2.7417 1.7583-3.0993 1.4603-3.0397 1.3709-0.50662 1.3411s2.8609-0.98344 4.8278-0.35761c1.9967 0.62582 4.351-0.50663 5.9603-2.2351s1.7583-1.6689 0.86424 0.17881c-0.86424 1.8477 0.38742 1.0728 3.3378 1.3709-2.4735-0.11921-7.808 1.1622-11.891 1.1622-4.0828 0-0.50662 1.2516-3.9636 1.9967-3.457 0.74503 0.11921 0.86423-0.62582 1.7285-0.74504 0.86424 1.4901 0.50663 1.3112 1.5795-0.149 1.1026-2.9503-1.4603-3.9338-0.59602-1.0132 0.86423-1.9669-0.35762-4.1126 0.1192-2.1159 0.47682-4.798 3.2185-2.4437 2.5927 2.3543-0.62583 2.2947 0.62582 4.4106 0 2.1159-0.62583 6.2285-0.38742 6.2285-0.38742s-1.9967 0.23841-3.5166 1.192c-1.5199 0.95364-3.3377 0.80464-6.4371 2.2947-3.0993 1.4901 0 2.3543 1.3709 1.7285 1.3411-0.62583 0.23841 2.4735 3.7252 0.98344 2.5927-1.1026 6.2881-1.4901 6.2881-1.4901s-4.4404 1.8775-7.4503 3.0993-0.62582 2.2351 1.8775 0.98344c2.4735-1.2218 3.3377-0.44702 6.2881-0.92384 2.9801-0.50662-5.6921 2.6523-4.4404 2.4139 1.2516-0.23841-2.4735 2.5927-0.35762 1.8775 2.1159-0.71523 4.9768-1.2517 6.4669-0.14901 1.4901 1.0728 3.7252-2.3543 6.7947-1.4603 3.0695 0.89404 1.2815-1.1324 4.3808-1.0132 3.0993 0.11921 2.4735-2.7119 5.6026-2.3543 3.0993 0.38742 1.3709-2.7119 4.351-2.3543 3.0099 0.38742 1.3709-1.7285 3.606-1.7285s0.62582-1.2517 3.606-1.3709c2.9801-0.11921 4.3212-0.29802 4.7086 0.26821 0.38741 0.53642 0.29801-3.0695 1.2516-5.1258-0.50662 0.86424 0 3.5762-0.1192 5.3046-0.11921 1.7583 2.5629-2.9503 4.202-1.2219 1.6391 1.7285 2.6225 0.92384 4.6192 1.043 1.9669 0.1192-1.0728-2.5927 0.149-3.457 1.2517-0.86423 0.71524-1.5199 2.8311-3.1291 2.1159-1.6093-0.62583-1.7583 1.1026-3.4868 1.7583-1.7285-0.74503-1.8477 0.23841-3.3378 1.0132-1.4901 0.1192-3.0993 0.38742-4.202 0.23841-1.1324-3.4868-3.1589-1.1324-3.3378 2.3841-0.20861-0.83444-2.3543 0.89404-2.4735 1.7285-0.11921-1.7881-2.3543-1.5199-3.606 0.23841-1.2517-0.0894-2.4139-1.2517-2.7119-1.1622-0.29801-1.4901-2.7417 1.1324-1.9967 2.5927 0.74503 1.0132-1.2517 2.2351-0.62583-2.5331-1.4007-6.8543 0.14901-7.3609-2.0861-0.50663-2.2351-1.2517 0-2.2351-3.2185-0.98345-3.2186-2.2351-4.2318-4.2318-0.74504-1.9669 3.4868-5.692 1.4901-8.4934-1.5795-2.7715-3.0695-1.7881-4.798 1.043-4.8576s0.23841-3.9636 3.7252-3.9636c3.5166 0.0298 1.5199-0.95364 3.7252-2.3245z" fill-rule="evenodd" stroke="#35d818" clip-rule="evenodd" stroke-width="1.063" fill="#ff3600"/>
      <path id="path61" d="m552.36 480.71c2.3133-4.0198-1.6939-1.0745 0.22123-4.4306 0.8975-1.5611-1.5485-0.84062-0.14544-3.8681 0.44874-0.96702-1.637-2.4586 0.0758-4.6898 1.7128-2.2311-0.22755-2.0857-1.9404-0.14542-2.6925 3.0338-1.302-2.2627-4.2473 0.52457-1.34 1.2641-3.2803-0.22121-2.2374-0.96704 1.0429-0.73948-2.0099-0.89118-0.74579-2.2311 1.2704-1.3399-1.9151-0.29074-3.7228-0.37289-5.2207-0.22121-4.3232-2.0036-8.5705-1.1882-4.2473 0.81534-3.0275-0.69525-5.069-0.89752-3.7986-0.3729 1.8645-2.3069-0.51829-2.2311s-1.6433-2.8252-2.9832-2.0099c-2.6862 1.637-4.4749 0.14543-5.4419 2.5282-0.96703 2.3765 0.96703 1.7887 4.9932 1.3336-5.5114 3.1286-5.6631 0.59412-6.706 1.637s-1.1882-0.74581-3.7291 0.74582c-2.5345 1.4853-5.6631 2.2311-5.4356 0.74582 0.2212-1.4916 3.9503-0.44877 4.9931-2.3828-2.3828 0.74584-5.3661 1.4158-4.1778-0.0758 1.1946-1.4916 4.7719-4.6898 7.9006-4.241-1.9404-0.74581-1.4916-1.6117 0.14542-3.255-5.2144 4.1462-5.3661 3.8492-8.4947 3.8492s7.2812 0.95439-2.307 2.0858c-3.0338 0.36024 6.036 1.4853-1.5675 2.9011-5.562 1.0366-5.8085-0.0758-7.3001 1.1187-1.4916 1.1946 6.1119-0.74582 3.2803 1.8582-1.5611 1.441-3.2993-0.65102-2.9832 0.96701 0.29705 1.4853-2.9264 0.39819-2.6293 0.99864 0.29707 0.59412-3.4762 0.93541-3.925 2.0541-0.44874 1.1124-3.5774 0.22122-4.399 1.637-0.82165 1.4158-1.8645-0.96703-2.1616 0.9607-0.29705 1.9404-3.7227 0.29705-4.7656 1.9404-1.0429 1.637-2.5345-0.44876-5.069 1.1187-2.5345 1.5612-1.5675 0.5183-4.3232 1.5612s-2.6799-0.29707-4.9173 0.74582-4.3232 1.4853-6.706 1.7128c-2.3828 0.22121-5.069 1.5612-3.5774-0.3729 1.3336-1.7318 9.7461-2.288 9.2405-3.1286 0.44874 0.74579 1.9403 1.637 1.9403 0.37291s0.89752-0.96706 5.8148-2.1553 1.7887-2.0857 6.4089-3.1286c4.6202-1.0428 1.4916-0.0758 5.069-1.8582 3.5774-1.7887 4.2916-1.8013 4.9047-3.2487-4.9047 3.2487-4.5887-0.54358-5.2017 1.0871-0.8975 2.3765-2.0858-0.89749-2.9832-0.29706-0.89752 0.60043-0.29707-1.9341-3.4257-0.37291s-1.4916-0.5246-0.22121-1.2641c1.2641-0.74582 2.9074-1.1882 2.0858-1.9341-0.82165-0.74582 1.3083-1.8456 3.748-2.6356-1.3905-0.22753-4.0008 0.62573-4.1209 0.84693-1.2641 2.3828-4.6202 1.637-4.6202 0.66999 0-0.96703-1.8645-0.81534-0.0758-1.7128 1.7887-0.8912 1.7887 0.14542 2.0099-0.14544 0.22123-0.29705 0-1.1882-1.8645-0.22753-1.8582 0.96701-1.7887 1.0429-1.7128 0 0.0758-1.0429-0.14542-1.4158 2.307-1.9341 2.4587-0.51826 0.96705-0.89118-0.96702-0.51826-1.9404 0.37292 0.22123-0.59414-0.52459-0.96703-0.74584-0.37291 1.4158-2.2374 1.934-1.34 0.52461 0.8912 1.8645-1.0429 4.7719-1.7128 2.9074-0.66363-1.7128-0.37292 1.4916-1.1124 3.2045-0.74582 2.3133 1.2641 3.5774 0.59409 1.2641-0.66995 4.576 0.986 4.1715-0.29705-0.24652-0.79005 2.958-0.87854 3.2803-0.3729 0.66998 1.0428 0.96705-0.14543 1.7887 0 3.2361 0.58779 0.8975-4.1715 3.8049-2.604 2.9074 1.5612 5.6631-1.3399 5.9602-1.934 0.29705-0.59414-3.7228-1.1946-4.4749 0-0.74583 1.1882-2.3828-0.74584-6.1877-0.0758-2.4018 0.42345-2.4018-1.2957-3.4257-1.637-2.9074-0.96703 5.3661 0-1.0429-1.4158-2.4586-0.54357-2.3133-2.3828-0.0758-1.7887 2.2374 0.59413 2.3828-0.59411 6.4089-0.29705 4.5381 0.33497-0.21491-0.67629 2.0099-1.0429 2.762-0.44876 5.9602-0.22125 9.1646-1.0429 3.2045-0.81533 4.4749 0.14543 2.1616 1.7887 2.3828-0.37291 1.4916 1.1187 3.729 0.66996 2.2374-0.44241-0.29705-1.5674 1.0429-1.637 1.3399-0.0758 0.967 1.4853 4.0261 0.96706-3.1286-0.74581-2.2374-0.81535 0.15172-1.7887-1.34 0.3729-1.9404 0.29708-2.8316-0.2212-4.0008-2.3322-0.89119 1.5611-2.7557 0-1.8645-1.5675-3.4257-0.82166-4.4749-2.5282-1.0492-1.7128-4.6202 0.0758-4.102-1.1882 0.52459-1.2641 0.29708 0.29704 3.2803-1.7887 2.9832-2.0858 2.9074 0.74584 4.7719 0.29706 1.8646-0.44875 0.37292 1.1124 6.8577-1.0429 3.3056-1.0998 1.1882-1.2641 5.739-2.5282 4.5444-1.2704 2.0099 0.59413 6.6302-1.1187 2.0541-0.75845 2.2374-0.14542 1.7128 0.29705-0.52462 0.44246 1.0429 1.637 1.3399 0.82168 0.57517-1.5928-2.7431-1.1693 1.8645-1.7128 3.1349-0.37291-0.3729 0.59411 0.22123 0.8975 0.60043 0.29705 2.5914-0.58779 4.7719-1.1187 2.4587-0.59414 5.2966-1.0239 6.9398-0.96704 4.1715 0.14544-1.2009 1.4158 1.7824 1.2641 2.9833-0.14543-0.44241-1.0429 1.1188-1.1124 1.5674-0.0758 0.82163 0.81534 4.4749 0.3729 3.6532-0.44243 2.9074 0.74583 0.19587 1.5864 4.0261 1.1124 4.576-1.441 6.0676-0.24647s1.8645-0.22756 3.7227 0.29704c1.8645 0.5246 2.3133-1.34 8.5705 1.4158 0.0253 0.011 1.2641-3.432 3.0528-1.2641 1.2957 1.5675 3.2108-0.2212 4.6961 1.7508-9.329 5.9854-24.056 15.447-38.89 28.903 0.74583-0.22123 1.2009-0.36026 2.0921 0.0822 1.4411 0.72054 1.4727-0.0948 2.3828 0.22754 0.0758 0.89752 0.44875 2.3765 1.8645 2.6799 1.9151 0.40452 2.0858-0.74581 3.8744-0.74581 1.7887 0 0.15171-0.7458 2.3828-1.0429 2.2374-0.29705 2.3133-0.15171 1.4916 0.51827-0.81533 0.66996 1.0492 6.548-0.0758 8.9308-0.59411 1.2704 0.8975 0.89751-0.0758 1.637-0.967 0.73952 2.4587 2.307 0.8975 3.3499-1.5738 1.0366 0.1264 1.5169-2.4839 2.2627z" stroke-opacity=".89573" fill-rule="evenodd" stroke="#11289d" clip-rule="evenodd" stroke-width="1.4173" fill="#ffee32"/>
    </g>
  </g>
  <metadata>
    <rdf:RDF>
      <cc:Work>
        <dc:format>image/svg+xml</dc:format>
        <dc:type rdf:resource="http://purl.org/dc/dcmitype/StillImage"/>
        <cc:license rdf:resource="http://creativecommons.org/licenses/publicdomain/"/>
        <dc:publisher>
          <cc:Agent rdf:about="http://openclipart.org/">
            <dc:title>Openclipart</dc:title>
          </cc:Agent>
        </dc:publisher>
        <dc:title>International Network (3)</dc:title>
        <dc:date>2010-07-08T08:02:48</dc:date>
        <dc:description>International Network </dc:description>
        <dc:source>http://openclipart.org/detail/71491/international-network-(3)-by-cibo00</dc:source>
        <dc:creator>
          <cc:Agent>
            <dc:title>cibo00</dc:title>
          </cc:Agent>
        </dc:creator>
        <dc:subject>
          <rdf:Bag>
            <rdf:li>business</rdf:li>
            <rdf:li>clip art</rdf:li>
            <rdf:li>clipart</rdf:li>
            <rdf:li>communication</rdf:li>
            <rdf:li>diversity</rdf:li>
            <rdf:li>exchange program</rdf:li>
            <rdf:li>image</rdf:li>
            <rdf:li>intergroup interaction</rdf:li>
            <rdf:li>international</rdf:li>
            <rdf:li>media</rdf:li>
            <rdf:li>multiculturalism</rdf:li>
            <rdf:li>nations</rdf:li>
            <rdf:li>network</rdf:li>
            <rdf:li>png</rdf:li>
            <rdf:li>public domain</rdf:li>
            <rdf:li>svg</rdf:li>
            <rdf:li>trading</rdf:li>
            <rdf:li>world regions</rdf:li>
          </rdf:Bag>
        </dc:subject>
      </cc:Work>
      <cc:License rdf:about="http://creativecommons.org/licenses/publicdomain/">
        <cc:permits rdf:resource="http://creativecommons.org/ns#Reproduction"/>
        <cc:permits rdf:resource="http://creativecommons.org/ns#Distribution"/>
        <cc:permits rdf:resource="http://creativecommons.org/ns#DerivativeWorks"/>
      </cc:License>
    </rdf:RDF>
  </metadata>
</svg>
